<?xml version="1.0" encoding="UTF-8"?>
<svg xmlns="http://www.w3.org/2000/svg" xmlns:xlink="http://www.w3.org/1999/xlink" viewBox="0 0 668.03 309.23">
  <defs>
    <style>
      .cls-1 {
        fill: #2b8d72;
      }

      .cls-2 {
        fill: #fff;
      }

      .cls-3 {
        isolation: isolate;
      }

      .cls-4 {
        fill: url(#radial-gradient);
        mix-blend-mode: multiply;
      }

      .cls-5 {
        fill: #221e50;
      }
    </style>
    <radialGradient id="radial-gradient" cx="-475.52" cy="-852.13" fx="-475.52" fy="-852.13" r="928.16" gradientTransform="translate(-1504.97 -376.61) rotate(90) scale(1 1.21)" gradientUnits="userSpaceOnUse">
      <stop offset=".54" stop-color="#5e5f5e"/>
      <stop offset=".64" stop-color="#5e5f5e" stop-opacity=".96"/>
      <stop offset=".73" stop-color="#5e5f5e" stop-opacity=".85"/>
      <stop offset=".82" stop-color="#5e5f5e" stop-opacity=".65"/>
      <stop offset=".91" stop-color="#5e5f5e" stop-opacity=".37"/>
      <stop offset=".99" stop-color="#5e5f5e" stop-opacity=".02"/>
      <stop offset="1" stop-color="#5e5f5e" stop-opacity="0"/>
    </radialGradient>
  </defs>
  <g class="cls-3">
    <g id="Layer_1" data-name="Layer 1">
      <rect class="cls-4" x="-1384.53" y="-296.59" width="1754.67" height="378.89"/>
      <rect class="cls-2" x="0" y="0" width="668.03" height="309.23" rx="154.61" ry="154.61"/>
      <g>
        <path class="cls-5" d="M325.57,135.91c-.31,3.59-.58,7.19-.96,10.78-.22,2.06-.98,2.4-2.47,.99-5.92-5.61-13.35-7.52-21.06-8.82-13.93-2.35-27.97-3.02-42.06-3.08-3.57-.02-7.28,0-10.17-2.8-2.54-2.48-2.39-4.09,.67-5.84,.96-.55,1.98-.97,2.96-1.48,2.73-1.43,4.58-5.2,4.09-8.2-.44-2.68-2.41-3.71-4.69-4.41-1.54-.47-3.14-.79-4.64-1.35-1.43-.54-1.39-1.68-.17-2.24,1.84-.85,3.86-1.29,5.78-1.95,.9-.31,1.75-.75,2.62-1.13-.57-.69-1.04-1.5-1.73-2.03-1.33-1.03-2.72-2.04-4.21-2.81-1.56-.81-1.3-1.35-.37-2.62,1.49-2.03,2.66-4.31,3.77-6.58,.69-1.42-.01-2.57-1.44-3.21-3.29-1.48-6.57-2.98-9.89-4.4-2.96-1.27-3.28-2.22-1.13-4.62,4.82-5.37,9.68-10.69,14.59-15.97,1.97-2.11,3.43-4.39,3.74-7.32,.65-6.04,3.23-11.24,6.78-16.08,2.43-3.32,4.62-6.82,6.87-10.26,1.63-2.49,2.05-2.66,4.51-1.05,6.36,4.16,11.27,9.82,16.01,15.66,6.65,8.19,11.56,17.45,15.95,26.92,3.74,8.06,6.8,16.47,9.75,24.87,3.6,10.26,5.46,20.95,6.44,31.77,.22,2.41,.03,4.86,.03,7.29,.14,0,.27,.01,.41,.02Z"/>
        <path class="cls-1" d="M398.45,106.51c1.27,.49,2.53,1,3.81,1.47,.75,.28,1.59,.38,2.28,.76,1.79,.98,1.78,2.29-.01,3.23-1.11,.58-2.28,1.03-3.44,1.5-3.41,1.36-4.53,3.98-3.36,7.48,.88,2.64,2.22,4.67,4.98,5.79,1.69,.68,3.79,1.66,3.56,4-.22,2.29-2.36,3.06-4.18,3.4-5.06,.92-10.16,1.82-15.28,2.2-8.68,.64-17.43,.48-26.06,1.43-7.05,.77-14.22,1.68-20.73,4.92-2.21,1.1-4.26,2.51-6.46,3.61-1.05,.53-2.71,1.27-3.35,.83-.85-.58-1.28-2.21-1.33-3.41-.11-2.87,.11-5.75,.2-8.62,.4-12.87,1.94-25.56,5.63-37.94,3.05-10.25,7.04-20.13,11.95-29.61,2.43-4.69,5.2-9.25,8.24-13.57,3.2-4.53,7.13-8.55,10.35-13.07,3.13-4.4,7.25-7.66,11.23-11.12,1.78-1.55,2.82-1.66,4.16,.25,3.05,4.32,5.87,8.81,8.85,13.18,2.9,4.25,5.15,8.65,5.67,13.95,.21,2.11,1.54,4.36,2.95,6.05,4.05,4.84,8.4,9.41,12.62,14.1,.54,.6,1.06,1.23,1.51,1.89,2.17,3.2,1.58,4.65-2.05,6.13-2.65,1.08-5.22,2.4-7.73,3.8-2.08,1.16-2.5,3.4-1.19,5.55,.69,1.13,1.49,2.19,2.31,3.23,1.8,2.28,1.49,3.56-1.17,5.04-1.42,.79-2.76,1.73-4.14,2.6,.06,.32,.12,.65,.18,.97Z"/>
        <path class="cls-5" d="M115.23,194.66c-.14,2.53-.4,5.06-.39,7.58,.02,2.35,.39,4.7,.5,7.06,.3,6.74-1.53,12.5-7.6,16.29-3.99,2.49-7.67,.99-8.62-3.66-1.99-9.74-2.24-19.6-1.95-29.5,.46-15.84,.8-31.69,1.11-47.54,.13-6.85-.09-13.71,.14-20.55,.15-4.29,2.06-8.11,4.32-11.7,1.71-2.71,4.02-3.65,7.19-3.08,2.56,.47,4.04,1.9,4.39,5.32,.85,8.27,1.44,16.57,2.14,24.86,.07,.81,.17,1.63,.25,2.3,2.34-3.04,4.34-6.23,6.92-8.85,4.36-4.43,9.76-7.35,15.79-8.89,3.25-.83,6.58-1.58,9.92-1.84,5.78-.44,8.03,3.57,7.15,8.73-1.26,7.42-5.53,12.94-11.04,17.83-5.44,4.83-10.9,9.72-15.71,15.15-4.91,5.55-4.92,12.71-.63,18.79,1.93,2.73,4.28,5.29,6.86,7.42,5.66,4.69,11.64,8.99,17.39,13.58,1.94,1.55,3.76,3.36,5.26,5.33,2.48,3.24,1.94,6.85,.32,10.27-1.47,3.1-4.45,3.37-7.4,3.29-8.67-.25-15.09-4.54-20.4-11.13-4.78-5.93-9.9-11.59-14.88-17.36-.35,.1-.69,.2-1.04,.29Z"/>
        <path class="cls-5" d="M519.87,173.8c-3.66-.24-7.39-.12-10.97-.79-10.06-1.87-17.53-10.57-18.61-20.92-.99-9.53,.94-18.33,7.48-25.49,5.68-6.21,12.79-10.23,21.28-11.65,6.49-1.09,12.91-.64,19.38,.05,4.64,.5,8.05,3.09,11.09,6.26,1.94,2.03,1.55,5.33-1.09,6.85-2.82,1.63-5.95,3.02-9.12,3.66-5.62,1.15-11.41,1.46-17.05,2.5-3.59,.66-7.19,1.71-10.55,3.14-3.34,1.42-5.65,4.21-5.68,8.03-.05,4.69,2.52,8.16,6.78,9.66,3.91,1.38,8.13,1.95,12.25,2.67,5.65,.99,11.38,1.53,16.98,2.72,8.06,1.71,11.87,7.68,13.77,15.1,2.72,10.64-.2,19.88-7.28,28.07-13.64,15.76-31.22,20.41-51.07,17.52-8.47-1.23-14.62-6.63-17.36-14.89-1.19-3.6-1.75-7.62-.09-11.48,1.31-3.05,3.84-4.49,6.81-5.03,2.74-.5,4.52,1.28,5.87,3.49,.96,1.57,1.96,3.11,2.94,4.67,4.04,6.42,11.09,9.59,18.45,7.75,8.51-2.13,15.2-7.18,20.51-14.09,1.11-1.45,2.34-2.95,2.94-4.62,2.46-6.86-2.13-13.48-9.45-13.78-2.72-.11-5.45-.02-8.18-.02,0,.21-.01,.42-.02,.64Z"/>
        <path class="cls-5" d="M433.33,134.97c9,.54,16.37,1.4,22.99,4.96,9.09,4.88,15.4,11.98,15.35,22.95-.03,6.56-3.13,11.97-7.76,16.57-2.89,2.87-5.51,5.98-6.52,10.08-1.41,5.7,1.32,10.95,7.28,14.09,3,1.58,5.95,3.24,8.98,4.75,2.12,1.06,3.43,2.49,3.2,5-.25,2.67-1.26,4.87-3.9,5.94-3.78,1.54-7.37,.66-10.47-1.58-4.59-3.3-9.02-6.83-13.37-10.45-3.97-3.31-8.32-5.91-13.22-7.39-2.77-.83-5.96-1.56-8.19,1.21-.99,1.23-1.63,2.99-1.82,4.58-.29,2.4-.06,4.86-.04,7.29,.03,4.37-2.95,7.73-7.2,8.03-5.59,.39-8.34-1.29-9.78-6.7-.35-1.32-.36-2.82-.16-4.18,2.12-14.3,1.51-28.7,1.7-43.08,.07-5.36,.37-10.75,1.01-16.07,.92-7.65,5.61-12.34,12.84-14.37,3.44-.97,7.07-1.27,9.09-1.62Zm-8.37,28.19c-.19,.03-.39,.06-.58,.1,.97,4.82,1.71,9.69,2.97,14.43,1.28,4.8,4.63,6.35,9.2,4.46,3.18-1.32,6.35-2.79,9.24-4.64,4.57-2.93,8.62-6.48,10.37-11.93,1.07-3.33,.7-6.39-1.74-9.06-4.3-4.69-9.88-6.27-15.95-6.18-2.66,.04-5.58,.34-7.91,1.5-4.49,2.23-6,6.42-5.6,11.34Z"/>
        <path class="cls-5" d="M165.09,178c-.09-11.52,4.32-22.57,13.29-31.64,3.45-3.49,8.25-4.41,12.88-5.38,8.99-1.88,17.75-.87,26.29,2.36,5.7,2.16,10.73,5.44,15.41,9.34,5.62,4.69,9.72,10.38,12.25,17.26,2.56,6.99,2.59,13.94,.18,20.98-2.76,8.06-7.03,15.11-12.89,21.36-11.16,11.9-29.03,16.43-44.36,9.52-5.57-2.51-9.69-6.97-13.31-11.97-6.64-9.18-9.99-19.28-9.73-31.84Zm70.19,.36c-.44-1.77-.67-3.62-1.36-5.28-2.21-5.41-6.48-9.04-11.22-12.12-4.2-2.73-8.93-4.09-13.89-4.71-9.25-1.17-16.95,1.45-22.79,8.99-10.45,13.5-6.97,32.2,4.39,40.08,8.23,5.71,17.02,7.58,26.31,3.51,11.48-5.04,18.9-17.83,18.57-30.46Z"/>
        <path class="cls-5" d="M318.07,200.85c.23-12.89,5.63-21.31,13.97-27.98,4.4-3.52,9.01-6.95,13.99-9.54,4.44-2.3,9.42-3.81,14.33-4.9,10.08-2.25,20.07-1.57,29.7,2.46,6.37,2.66,10.01,7.57,11.21,14.26,1.19,6.64,.81,13.24-1.3,19.66-2.9,8.82-8.75,15.41-16.27,20.58-10.01,6.88-21.44,9.33-33.29,9.52-5.76,.1-11.62-.88-17.29-2.08-7.11-1.5-11.44-6.42-13.33-13.33-.92-3.39-1.38-6.91-1.71-8.65Zm33.11,13.92c9.89-.04,20.77-5.1,27.65-11.31,7.45-6.73,9.16-18.13,5.78-25.98-2.16-5.02-5.95-8.48-11.44-9.42-4.97-.85-9.7,.62-14.13,2.74-5.95,2.85-11.24,6.74-16.19,11.08-4.76,4.17-9.06,8.69-10.87,14.98-1.04,3.59-.63,6.97,1.67,10.05,4.64,6.19,10.96,8.37,17.54,7.86Z"/>
        <path class="cls-5" d="M257.82,204.34c-.62-9.7-1.38-19.4-1.8-29.12-.17-3.95,.28-7.94,.6-11.89,.37-4.58,3.21-5.98,5.89-6.44,2.8-.47,6.36,2.01,7.21,5.41,.85,3.38,1.48,6.97,1.3,10.43-.36,6.76-1.57,13.47-2,20.23-.31,4.82-.27,9.72,.23,14.52,.5,4.76,4.67,7.34,9.4,6.16,5.57-1.39,11.04-3.2,16.61-4.55,3.61-.88,7.32-2.17,11.06-.6,1.36,.57,2.89,1.32,3.73,2.45,3.04,4.03,1.18,11.32-3.49,13.18-2.88,1.15-6.1,2.14-9.14,2.09-11.05-.19-22.09-.85-33.14-1.34-1.4-.06-2.85-.41-4.18-.14-2.1,.43-2.47-.56-2.47-2.23-.02-4.06-.06-8.11-.08-12.17-.01-1.99,0-3.98,0-5.97,.09,0,.19-.02,.28-.02Z"/>
        <path class="cls-5" d="M578.39,117.48c-.38-4.18-.71-7.93-1.05-11.68-.31-.02-.61-.03-.92-.05-.52,1.38-1.05,2.74-1.54,4.13-.7,1.94-1.33,3.9-2.07,5.82-.19,.49-.65,.86-.99,1.29-.35-.42-.86-.78-1.02-1.26-1-2.85-1.88-5.74-2.9-8.58-.27-.74-.88-1.35-1.34-2.02-.33,.11-.65,.21-.98,.32v11.53h-.7c-.1-.36-.32-.74-.3-1.11,.21-4.04,.42-8.08,.73-12.11,.03-.41,.73-1.14,1.01-1.09,.53,.09,1.24,.54,1.44,1.01,.91,2.25,1.66,4.56,2.48,6.85,.44,1.22,.9,2.44,1.35,3.66,.19,.01,.39,.02,.58,.04,.86-2.28,1.72-4.55,2.57-6.83,.48-1.3,.89-2.63,1.44-3.89,.17-.38,.76-.88,1.07-.83,.46,.08,1.19,.57,1.22,.94,.36,4.33,.62,8.66,.88,13,0,.13-.29,.28-.94,.86Z"/>
        <path class="cls-5" d="M562.04,103.31c-.31,.12-.62,.33-.94,.36-3.39,.32-3.4,.31-3.42,3.78-.01,2.72,.04,5.45-.01,8.17-.01,.47-.43,.94-.66,1.41-.28-.49-.79-.98-.8-1.47-.06-3.02-.12-6.04,.05-9.05,.11-2.02-.3-3.17-2.62-2.82-.42,.06-.9-.23-1.3-.88h9.63c.02,.17,.05,.34,.07,.51Z"/>
        <g>
          <path class="cls-5" d="M101.14,253.93h1.27c.48,0,.87-.07,1.18-.2,.3-.13,.58-.34,.82-.64l8.27-9.87c.29-.37,.59-.62,.9-.77,.31-.15,.7-.22,1.17-.22h3.79l-9.77,11.53c-.27,.33-.52,.6-.77,.83-.25,.22-.52,.4-.81,.54,.38,.14,.72,.33,1.02,.58s.6,.57,.89,.98l10.13,12.86h-3.87c-.28,0-.52-.02-.71-.06-.2-.04-.37-.09-.51-.17-.15-.08-.27-.17-.38-.28-.11-.11-.21-.24-.29-.38l-8.54-10.43c-.13-.16-.25-.3-.38-.42-.13-.11-.28-.21-.45-.28-.17-.08-.36-.13-.58-.16-.22-.03-.47-.05-.76-.05h-1.63v12.24h-4.44v-27.32h4.44v11.69Z"/>
          <path class="cls-5" d="M150.24,255.9c0,2.02-.33,3.89-.99,5.6-.66,1.71-1.58,3.18-2.78,4.41s-2.63,2.2-4.31,2.89c-1.68,.7-3.54,1.04-5.59,1.04s-3.89-.35-5.57-1.04c-1.68-.7-3.11-1.66-4.32-2.89-1.2-1.23-2.13-2.7-2.79-4.41-.66-1.71-.99-3.57-.99-5.6s.33-3.89,.99-5.6c.66-1.71,1.59-3.18,2.79-4.42,1.2-1.24,2.64-2.21,4.32-2.9,1.68-.7,3.53-1.04,5.57-1.04s3.91,.35,5.59,1.04c1.68,.7,3.11,1.66,4.31,2.9,1.2,1.24,2.12,2.71,2.78,4.42,.66,1.71,.99,3.57,.99,5.6Zm-4.53,0c0-1.57-.21-2.98-.64-4.23-.42-1.25-1.03-2.31-1.82-3.19s-1.75-1.54-2.87-2.01c-1.13-.47-2.39-.7-3.79-.7s-2.65,.23-3.78,.7c-1.13,.47-2.09,1.14-2.88,2.01s-1.41,1.94-1.84,3.19c-.43,1.25-.65,2.66-.65,4.23s.21,3,.65,4.25c.43,1.25,1.04,2.31,1.84,3.18,.8,.87,1.76,1.53,2.88,1.99,1.13,.46,2.38,.69,3.78,.69s2.67-.23,3.79-.69c1.13-.46,2.08-1.13,2.87-1.99,.79-.87,1.4-1.93,1.82-3.18,.42-1.25,.64-2.67,.64-4.25Z"/>
          <path class="cls-5" d="M174.68,265.84v3.72h-15.79v-27.32h4.44v23.6h11.35Z"/>
          <path class="cls-5" d="M206.86,255.9c0,2.02-.33,3.89-.99,5.6-.66,1.71-1.58,3.18-2.78,4.41s-2.63,2.2-4.31,2.89c-1.68,.7-3.54,1.04-5.59,1.04s-3.89-.35-5.57-1.04c-1.68-.7-3.11-1.66-4.32-2.89-1.2-1.23-2.13-2.7-2.79-4.41-.66-1.71-.99-3.57-.99-5.6s.33-3.89,.99-5.6c.66-1.71,1.59-3.18,2.79-4.42,1.2-1.24,2.64-2.21,4.32-2.9,1.68-.7,3.53-1.04,5.57-1.04s3.91,.35,5.59,1.04c1.68,.7,3.11,1.66,4.31,2.9,1.2,1.24,2.12,2.71,2.78,4.42,.66,1.71,.99,3.57,.99,5.6Zm-4.53,0c0-1.57-.21-2.98-.64-4.23-.42-1.25-1.03-2.31-1.82-3.19s-1.75-1.54-2.87-2.01c-1.13-.47-2.39-.7-3.79-.7s-2.65,.23-3.78,.7c-1.13,.47-2.09,1.14-2.88,2.01s-1.41,1.94-1.84,3.19c-.43,1.25-.65,2.66-.65,4.23s.21,3,.65,4.25c.43,1.25,1.04,2.31,1.84,3.18,.8,.87,1.76,1.53,2.88,1.99,1.13,.46,2.38,.69,3.78,.69s2.67-.23,3.79-.69c1.13-.46,2.08-1.13,2.87-1.99,.79-.87,1.4-1.93,1.82-3.18,.42-1.25,.64-2.67,.64-4.25Z"/>
          <path class="cls-5" d="M236.3,269.56h-3.97c-.78,0-1.35-.3-1.71-.91l-6.37-9.2c-.21-.32-.45-.54-.7-.68-.25-.14-.63-.21-1.14-.21h-2.47v11h-4.44v-27.32h8.04c1.8,0,3.34,.18,4.64,.55,1.3,.37,2.36,.89,3.2,1.57,.83,.68,1.45,1.49,1.85,2.44s.6,2,.6,3.17c0,.95-.14,1.83-.43,2.66-.28,.82-.7,1.57-1.23,2.24-.54,.67-1.2,1.25-1.98,1.75s-1.68,.88-2.67,1.16c.54,.33,1.01,.79,1.4,1.39l7.38,10.42Zm-12.86-14.23c1.01,0,1.9-.12,2.66-.37,.76-.25,1.39-.59,1.9-1.03,.51-.44,.89-.97,1.14-1.58,.25-.61,.38-1.29,.38-2.04,0-1.49-.49-2.63-1.48-3.41-.99-.78-2.48-1.18-4.48-1.18h-3.6v9.62h3.49Z"/>
          <path class="cls-5" d="M257.68,246.91c-.14,.23-.28,.4-.44,.5-.15,.11-.34,.16-.57,.16-.24,0-.51-.1-.81-.3-.3-.2-.66-.43-1.1-.67-.44-.25-.95-.47-1.55-.68-.59-.21-1.3-.31-2.12-.31-.76,0-1.43,.09-2,.28-.58,.19-1.06,.46-1.45,.8-.39,.34-.69,.74-.88,1.2-.2,.46-.29,.96-.29,1.51,0,.7,.18,1.27,.55,1.74,.37,.46,.85,.86,1.45,1.19,.6,.33,1.29,.62,2.06,.86,.77,.25,1.56,.51,2.36,.79,.8,.28,1.59,.59,2.36,.95,.77,.35,1.46,.8,2.06,1.35,.6,.54,1.08,1.21,1.45,1.99,.37,.78,.55,1.74,.55,2.86,0,1.21-.21,2.35-.63,3.41-.42,1.06-1.02,1.99-1.81,2.78-.79,.79-1.76,1.41-2.92,1.87-1.16,.46-2.48,.68-3.96,.68-.87,0-1.72-.09-2.55-.26-.83-.17-1.62-.41-2.37-.72-.75-.31-1.46-.69-2.12-1.13-.66-.44-1.25-.94-1.76-1.48l1.29-2.12c.11-.18,.26-.32,.44-.42,.18-.1,.37-.15,.59-.15,.29,0,.61,.14,.97,.41,.35,.27,.78,.57,1.28,.89s1.1,.62,1.81,.89c.71,.27,1.56,.41,2.54,.41,1.61,0,2.85-.39,3.73-1.18,.88-.78,1.32-1.87,1.32-3.24,0-.77-.18-1.4-.55-1.89-.37-.49-.85-.89-1.45-1.22-.6-.33-1.29-.61-2.06-.83s-1.56-.47-2.35-.73c-.8-.26-1.58-.56-2.35-.91-.77-.35-1.46-.8-2.06-1.37-.6-.56-1.08-1.26-1.45-2.09-.37-.83-.55-1.86-.55-3.1,0-.99,.19-1.94,.58-2.86,.39-.92,.95-1.74,1.69-2.46,.74-.71,1.65-1.29,2.74-1.72,1.09-.43,2.33-.64,3.72-.64,1.57,0,3.01,.25,4.32,.74,1.31,.49,2.44,1.2,3.39,2.11l-1.08,2.12Z"/>
          <path class="cls-5" d="M303.74,242.24v27.32h-4.44v-12.16h-13.72v12.16h-4.46v-27.32h4.46v11.95h13.72v-11.95h4.44Z"/>
          <path class="cls-5" d="M331.1,265.97l-.02,3.59h-17.04v-27.32h17.04v3.59h-12.58v8.23h10.06v3.47h-10.06v8.44h12.6Z"/>
          <path class="cls-5" d="M362.56,269.56h-3.43c-.39,0-.71-.1-.95-.29-.24-.2-.42-.44-.55-.73l-2.28-6.03h-11.76l-2.28,6.03c-.1,.25-.28,.49-.53,.7-.25,.22-.57,.32-.95,.32h-3.43l10.83-27.32h4.5l10.83,27.32Zm-8.4-10.24l-3.76-9.98c-.3-.77-.61-1.75-.93-2.94-.14,.59-.29,1.14-.46,1.64-.16,.5-.32,.94-.46,1.32l-3.76,9.96h9.35Z"/>
          <path class="cls-5" d="M385.32,265.84v3.72h-15.79v-27.32h4.44v23.6h11.35Z"/>
          <path class="cls-5" d="M408.26,245.94h-8.52v23.62h-4.42v-23.62h-8.54v-3.7h21.48v3.7Z"/>
          <path class="cls-5" d="M438.46,242.24v27.32h-4.44v-12.16h-13.72v12.16h-4.46v-27.32h4.46v11.95h13.72v-11.95h4.44Z"/>
          <path class="cls-5" d="M467.74,263.47c.24,0,.45,.09,.63,.28l1.76,1.92c-1.11,1.34-2.48,2.37-4.1,3.1-1.62,.73-3.55,1.09-5.81,1.09-2,0-3.8-.34-5.42-1.03-1.61-.69-2.99-1.65-4.13-2.88s-2.01-2.7-2.63-4.41-.92-3.59-.92-5.63,.33-3.93,.98-5.64c.65-1.71,1.57-3.19,2.75-4.42,1.18-1.23,2.6-2.19,4.25-2.87,1.65-.68,3.47-1.02,5.45-1.02s3.72,.32,5.23,.96c1.51,.64,2.82,1.49,3.94,2.55l-1.46,2.07c-.1,.14-.22,.26-.36,.36-.14,.1-.33,.15-.57,.15-.25,0-.54-.12-.86-.35-.32-.23-.73-.49-1.23-.78-.5-.28-1.13-.54-1.88-.78-.75-.23-1.69-.35-2.82-.35-1.3,0-2.5,.23-3.59,.68-1.09,.46-2.02,1.12-2.81,1.99-.78,.87-1.39,1.94-1.83,3.19-.44,1.25-.65,2.68-.65,4.27s.23,3.04,.68,4.3c.46,1.26,1.08,2.32,1.88,3.19,.8,.87,1.73,1.53,2.81,1.98,1.07,.46,2.23,.68,3.47,.68,.76,0,1.44-.04,2.04-.12,.6-.08,1.15-.21,1.66-.4,.51-.18,.98-.41,1.43-.69,.45-.28,.89-.62,1.34-1.02,.25-.23,.51-.34,.76-.34Z"/>
          <path class="cls-5" d="M500.64,269.56h-3.43c-.39,0-.71-.1-.95-.29-.24-.2-.42-.44-.55-.73l-2.28-6.03h-11.76l-2.28,6.03c-.1,.25-.28,.49-.53,.7-.25,.22-.57,.32-.95,.32h-3.43l10.83-27.32h4.5l10.83,27.32Zm-8.4-10.24l-3.76-9.98c-.3-.77-.61-1.75-.93-2.94-.14,.59-.29,1.14-.46,1.64-.16,.5-.32,.94-.46,1.32l-3.76,9.96h9.35Z"/>
          <path class="cls-5" d="M528.41,269.56h-3.97c-.78,0-1.35-.3-1.71-.91l-6.37-9.2c-.21-.32-.45-.54-.7-.68-.25-.14-.63-.21-1.14-.21h-2.47v11h-4.44v-27.32h8.04c1.8,0,3.34,.18,4.64,.55,1.3,.37,2.36,.89,3.2,1.57,.83,.68,1.45,1.49,1.85,2.44s.6,2,.6,3.17c0,.95-.14,1.83-.43,2.66-.28,.82-.7,1.57-1.23,2.24-.54,.67-1.2,1.25-1.98,1.75s-1.68,.88-2.67,1.16c.54,.33,1.01,.79,1.4,1.39l7.38,10.42Zm-12.86-14.23c1.01,0,1.9-.12,2.66-.37,.76-.25,1.39-.59,1.9-1.03,.51-.44,.89-.97,1.14-1.58,.25-.61,.38-1.29,.38-2.04,0-1.49-.49-2.63-1.48-3.41-.99-.78-2.48-1.18-4.48-1.18h-3.6v9.62h3.49Z"/>
          <path class="cls-5" d="M552.56,265.97l-.02,3.59h-17.04v-27.32h17.04v3.59h-12.58v8.23h10.06v3.47h-10.06v8.44h12.6Z"/>
        </g>
      </g>
    </g>
  </g>
</svg>